<svg id="visual" viewBox="0 0 960 400" width="960" height="400" xmlns="http://www.w3.org/2000/svg" xmlns:xlink="http://www.w3.org/1999/xlink" version="1.1"><rect x="0" y="0" width="960" height="400" fill="#002233"></rect><path d="M0 255L22.8 269.5C45.7 284 91.3 313 137 324.8C182.7 336.7 228.3 331.3 274 318.8C319.7 306.3 365.3 286.7 411.2 291.2C457 295.7 503 324.3 548.8 321.3C594.7 318.3 640.3 283.7 686 271.7C731.7 259.7 777.3 270.3 823 281.2C868.7 292 914.3 303 937.2 308.5L960 314L960 401L937.2 401C914.3 401 868.7 401 823 401C777.3 401 731.7 401 686 401C640.3 401 594.7 401 548.8 401C503 401 457 401 411.2 401C365.3 401 319.7 401 274 401C228.3 401 182.7 401 137 401C91.3 401 45.7 401 22.8 401L0 401Z" fill="#202731" stroke-linecap="round" stroke-linejoin="miter"></path></svg>
